# xmcd CD database file
#
# Track frame offsets:
#	150
#	14636
#	28605
#	39461
#	54359
#	69170
#	82829
#	96274
#	110825
#	125371
#	153498
#	167176
#	180299
#	195053
#	209512
#	223017
#	236884
#	251656
#	267173
#	282434
#
# Disc length: 3954 seconds
#
# Revision: 1
# Processed by: cddbd v1.5.2PL0 Copyright (c) Steve Scherf et al.
# Submitted via: CDex 1.77
#
DISCID=170f7014
DTITLE=Louis Armstrong - The Essential Collection [CD2)
DYEAR=2009
DGENRE=Jazz
TTITLE0=Louis Armstrong And His Orchestra - When It's Sleepy Time Down South
TTITLE1=Louis Armstrong With The Gordon Jenkins Orchestra and Choir - That Lucky Old Sun
TTITLE2=Louis Armstrong And The Mills Brothers - Marie
TTITLE3=Louis Armstrong And His Orchestra And His Hot Five - West End Blues
TTITLE4=Louis Armstrong And His Orchestra And His Hot Five - Once In A While
TTITLE5=Louis Armstrong And His Orchestra And His Hot Seven - Melancholy Blues
TTITLE6=Louis Armstrong And His Orchestra And His Savoy Ballroom Five - Bea Koo Jack
TTITLE7=Louis Armstrong And His Orchestra - Wolverine Blues
TTITLE8=Louis Armstrong And His Orchestra - Basin Street Blues
TTITLE9=Louis Armstrong And His Orchestra With Billie Holiday - Do You Know What It Means To Miss New Orleans? (Live)
TTITLE10=Louis Armstrong And His Orchestra And His Hot Seven - Alligator Crawl
TTITLE11=Louis Armstrong And His Orchestra And His Hot Five - Heebie Jeebies
TTITLE12=Louis Armstrong And His Orchestra - Dallas Blues
TTITLE13=Louis Armstrong - Lyin' To Myself
TTITLE14=Louis Armstrong - Thankful
TTITLE15=Louis Armstrong - Red Nose
TTITLE16=Louis Armstrong - You Rascal, You
TTITLE17=Louis Armstrong - You're Lucky To Me
TTITLE18=Louis Armstrong And His Orchestra And His Hot Seven - St. James Infirmary
TTITLE19=Louis Armstrong And His Orchestra And His Hot Seven - Tight Like This
EXTD=YEAR: 2009
EXTT0=
EXTT1=
EXTT2=
EXTT3=
EXTT4=
EXTT5=
EXTT6=
EXTT7=
EXTT8=
EXTT9=
EXTT10=
EXTT11=
EXTT12=
EXTT13=
EXTT14=
EXTT15=
EXTT16=
EXTT17=
EXTT18=
EXTT19=
PLAYORDER=
